<?xml version="1.0" standalone="no"?>
<!DOCTYPE svg PUBLIC "-//W3C//DTD SVG 20010904//EN"
 "http://www.w3.org/TR/2001/REC-SVG-20010904/DTD/svg10.dtd">
<svg version="1.0" xmlns="http://www.w3.org/2000/svg"
 width="255.000000pt" height="255.000000pt" viewBox="0 0 255.000000 255.000000"
 preserveAspectRatio="xMidYMid meet">
<metadata>
Created by potrace 1.11, written by Peter Selinger 2001-2013
</metadata>
<g transform="translate(0.000000,255.000000) scale(0.100000,-0.100000)"
fill="#000000" stroke="none">
<path d="M1559 2265 c-27 -9 -69 -35 -99 -62 l-52 -47 -89 18 c-48 10 -92 16
-96 13 -4 -3 -128 -28 -275 -56 l-266 -51 -277 0 c-236 0 -282 -2 -311 -16
-67 -32 -64 12 -64 -892 0 -799 0 -820 20 -844 36 -47 56 -49 371 -46 l294 4
265 52 264 52 290 -55 291 -56 285 3 c310 3 313 4 374 64 65 66 61 5 64 925
l2 836 -28 54 c-90 172 -343 150 -397 -35 l-12 -41 -94 -3 -95 -3 -12 34 c-16
45 -88 116 -141 140 -58 26 -153 31 -212 12z m855 -74 c18 -12 42 -38 52 -59
18 -35 19 -79 22 -760 l3 -723 -40 25 c-21 14 -66 30 -99 37 -51 11 -69 10
-116 -3 l-56 -15 0 706 c0 801 -5 753 81 799 52 28 100 25 153 -7z m-1204
-229 l0 -157 -232 -44 c-128 -24 -239 -46 -245 -48 -10 -4 -13 31 -13 155 l0
160 198 37 c108 20 213 41 232 45 19 4 41 8 48 9 9 1 12 -37 12 -157z m137
143 c31 -6 31 -7 21 -43 -14 -51 -5 -155 20 -225 l20 -57 -21 5 c-12 3 -40 9
-62 13 l-40 8 -3 158 c-2 147 -1 157 15 153 10 -3 32 -8 50 -12z m342 -40 c16
-8 34 -28 41 -45 28 -67 -44 -138 -111 -109 -64 26 -70 121 -10 154 33 18 46
18 80 0z m-1029 -205 l0 -160 -181 0 -181 0 -34 -34 -34 -34 0 -364 c0 -392 0
-390 53 -420 13 -8 75 -15 152 -18 123 -5 130 -6 133 -26 3 -20 -3 -22 -69
-26 -66 -5 -76 -9 -101 -37 -35 -39 -35 -71 -2 -110 l26 -31 119 0 119 0 0
-130 0 -130 -267 0 c-234 0 -269 2 -285 17 -17 15 -18 54 -18 824 l0 808 22
15 c19 14 64 16 285 16 l263 0 0 -160z m1450 -545 c0 -804 -8 -744 87 -694 96
51 210 31 268 -45 50 -65 17 -172 -65 -213 -43 -22 -54 -23 -307 -23 l-263 0
0 130 0 130 60 0 c68 0 103 17 126 61 21 41 21 923 0 974 -18 42 -61 65 -121
65 l-45 0 29 58 c38 76 61 155 61 214 l0 48 85 0 85 0 0 -705z m-900 -65 c0
-269 -3 -490 -7 -490 -5 0 -114 -20 -243 -45 -129 -25 -236 -45 -237 -45 -2 0
-3 50 -3 112 l0 112 38 -36 c58 -56 77 -63 115 -41 49 29 140 144 186 236 98
196 91 340 -23 451 -64 62 -124 81 -233 73 l-83 -6 0 39 c0 33 4 41 23 45 54
13 424 83 445 84 l22 1 0 -490z m146 479 c88 -15 88 -15 128 -73 50 -73 139
-156 167 -156 12 0 42 16 65 36 l44 35 0 -451 c0 -425 -1 -451 -17 -446 -10 3
-117 24 -238 46 -121 23 -223 44 -227 46 -5 3 -8 223 -8 490 0 393 2 484 13
484 7 0 40 -5 73 -11z m-696 -145 c0 -51 -4 -60 -39 -101 -75 -85 -91 -196
-45 -331 14 -42 39 -98 55 -125 29 -47 29 -48 29 -207 l0 -160 -109 0 c-78 0
-110 4 -113 13 -11 28 4 37 63 37 72 0 112 18 129 60 10 24 10 36 0 60 -22 54
-42 60 -179 60 -102 0 -128 3 -143 17 -17 15 -18 39 -18 356 0 303 2 342 17
359 14 16 34 18 185 18 l168 0 0 -56z m1290 36 c19 -19 20 -33 20 -468 0 -518
4 -492 -86 -492 l-54 0 0 490 0 490 50 0 c37 0 55 -5 70 -20z m-1022 -116 c73
-30 127 -103 138 -187 15 -107 -81 -314 -195 -421 l-31 -30 -36 35 c-103 99
-194 280 -194 388 0 85 58 177 134 212 50 23 134 24 184 3z m282 -932 l0 -128
-227 -43 c-126 -23 -236 -45 -245 -47 -17 -5 -18 5 -18 120 0 76 4 127 10 131
10 6 439 92 468 94 9 1 12 -31 12 -127z m333 77 l217 -41 0 -124 c0 -92 -3
-124 -12 -124 -7 0 -115 19 -240 42 l-228 43 0 128 c0 127 0 127 23 122 12 -2
120 -23 240 -46z"/>
<path d="M760 1418 c-65 -45 -86 -121 -52 -188 37 -75 138 -104 210 -60 42 26
77 99 68 143 -21 107 -141 162 -226 105z m135 -61 c60 -51 21 -147 -60 -147
-25 0 -40 8 -59 31 -34 40 -33 74 3 110 36 36 79 38 116 6z"/>
</g>
</svg>
