<svg xmlns="http://www.w3.org/2000/svg" xmlns:xlink="http://www.w3.org/1999/xlink" width="87" height="69" viewBox="0 0 87 69"><defs><path id="846na" d="M10.917 83c-1.654 0-3-1.346-3-3V26c0-1.654 1.346-3 3-3h19v59.792L28.822 83z"/><path id="846nb" d="M28.917 24v57.964l-.189.036h-17.81c-1.104 0-2-.897-2-2V26c0-1.103.896-2 2-2h18zm2-2h-20a4 4 0 0 0-4 4v54a4 4 0 0 0 4 4h18l2-.381z"/><path id="846nc" d="M29.917 22.827l18.438-3.512c.184-.035.373-.052.56-.052l.002 59.91-19 3.62z"/><path id="846nd" d="M47.917 20.416v57.93l-17 3.237V23.657l17-3.24zm1-2.154c-.251 0-.501.024-.749.071l-19.251 3.668v62l21-4V18.38l-.253-.048a3.995 3.995 0 0 0-.747-.07z"/><path id="846ne" d="M48.917 79.173V19.209l19 3.618v59.965z"/><path id="846nf" d="M49.917 20.417l17 3.238v57.928l-17-3.238zm-1-2.227l-1 .191v61.62l21 4V22z"/><path id="846ng" d="M69.012 83l-1.095-.208V23h18v28.335l1.912-4.24c1.6-3.546 2.431-3.762 2.44-3.763.413.223 2.815 2.852 2.653 31.945l-.005 1.223c0 3.407-2.664 6.252-6.065 6.477L86.5 83z"/><path id="846nh" d="M84.917 24v31.982l3.823-8.476c.546-1.211.982-1.984 1.303-2.474.787 2.224 1.997 9.089 1.88 30.24-.004.522-.006.938-.006 1.228a5.506 5.506 0 0 1-5.132 5.479l-.262.021H69.106l-.189-.036V24h16zm2-2h-20v61.619l2 .381h18v-.025c3.908-.259 7-3.502 7-7.475 0-4.142.475-34.167-3.667-34.167-.984 0-2.14 1.708-3.333 4.35z"/><path id="846ni" d="M67.917 72V36h4c1.654 0 3 1.346 3 3v30c0 1.654-1.346 3-3 3z"/><path id="846nj" d="M71.917 37c1.103 0 2 .897 2 2v30c0 1.103-.897 2-2 2h-3V37h3zm0-2h-5v38h5a4 4 0 0 0 4-4V39a4 4 0 0 0-4-4z"/><path id="846nk" d="M92.917 74.5c-1.449-2.705-4.31-4.5-7.5-4.5a8.49 8.49 0 0 0-5.504 2.028l.004-49.713.023-.25C80.165 18.664 83.01 16 86.417 16c3.407 0 6.252 2.664 6.477 6.065l.023.353z"/><path id="846nl" d="M86.417 17a5.506 5.506 0 0 1 5.48 5.132l.02.262v49.187a9.502 9.502 0 0 0-6.5-2.581c-1.58 0-3.126.396-4.5 1.136V22.447l.021-.315A5.506 5.506 0 0 1 86.418 17zm0-2c-3.973 0-7.216 3.092-7.475 7h-.025v49.988c0 .603.505 1.032 1.03 1.032a.936.936 0 0 0 .615-.231A7.453 7.453 0 0 1 85.417 71a7.502 7.502 0 0 1 7.35 6h1.15V22h-.025c-.259-3.908-3.502-7-7.475-7z"/><path id="846nm" d="M92.917 74.5c-1.449-2.705-4.31-4.5-7.5-4.5-2.017 0 5.03-.279 3.496 1.028l.027-49.963C89.417 15 83.01 16 86.417 16c3.407 0 6.252 2.664 6.477 6.065l.023.353z"/><path id="846nn" d="M29.917 35.827l19-3.619v35.965l-19 3.62z"/><path id="846no" d="M47.917 33.417v33.928l-17 3.238V36.655zm2-2.417l-21 4v38l21-4z"/><path id="846np" d="M48.917 68.173V32.208l19 3.619v35.965z"/><path id="846nq" d="M49.917 33.417l17 3.238v33.928l-17-3.238zm-2-2.417v38l21 4V35z"/><path id="846nr" d="M21.917 72a2 2 0 0 1-1.546-.736 1.988 1.988 0 0 1-.414-1.674c.181-.906 1.08-1.59 2.092-1.59h2.868c1.103 0 2-.897 2-2s-.897-2-2-2h-7c-1.654 0-3-1.346-3-3V39c0-1.654 1.346-3 3-3h12v36z"/><path id="846ns" d="M28.917 37v34h-7a.999.999 0 0 1-.773-.371.984.984 0 0 1-.205-.844c.087-.44.575-.785 1.11-.785h2.868c1.654 0 3-1.346 3-3s-1.346-3-3-3h-7c-1.103 0-2-.897-2-2V39c0-1.103.897-2 2-2h11zm2-2h-13a4 4 0 0 0-4 4v22a4 4 0 0 0 4 4h7c.55 0 1 .45 1 1s-.45 1-1 1H22.048c-1.45 0-2.788.972-3.07 2.395A3.008 3.008 0 0 0 21.917 73h9z"/><path id="846nt" d="M34.95 64.997c-1.67-.358-9.004-8.599-9.004-15.997 0-4.963 4.037-9 9-9s9 4.037 9 9c0 7.507-7.33 15.678-8.996 15.997z"/><path id="846nu" d="M34.946 41c4.41 0 8 3.589 8 8 0 6.394-5.944 13.629-7.99 14.887-2.05-1.288-8.01-8.565-8.01-14.887 0-4.411 3.589-8 8-8zm0-2c-5.523 0-10 4.477-10 10 0 7.937 8 17 10 17 2.063 0 10-9 10-17 0-5.523-4.477-10-10-10z"/><path id="846nv" d="M38.946 49a4 4 0 1 1-8 0 4 4 0 0 1 8 0z"/><path id="846nw" d="M62.95 40.997c-1.67-.358-9.004-8.599-9.004-15.997 0-4.963 4.037-9 9-9s9 4.037 9 9c0 7.507-7.33 15.678-8.996 15.997z"/><path id="846nx" d="M62.946 17c4.41 0 8 3.589 8 8 0 6.394-5.944 13.629-7.99 14.887-2.05-1.288-8.01-8.565-8.01-14.887 0-4.411 3.589-8 8-8zm0-2c-5.523 0-10 4.477-10 10 0 7.937 8 17 10 17 2.063 0 10-9 10-17 0-5.523-4.477-10-10-10z"/><path id="846ny" d="M66.946 25a4 4 0 1 1-8 0 4 4 0 0 1 8 0z"/></defs><g><g transform="translate(-7 -15)"><use fill="#30cdfc" xlink:href="#846na"/></g><g transform="translate(-7 -15)"><use fill="#26255c" xlink:href="#846nb"/></g><g transform="translate(-7 -15)"><use fill="#7becff" xlink:href="#846nc"/></g><g transform="translate(-7 -15)"><use fill="#26255c" xlink:href="#846nd"/></g><g transform="translate(-7 -15)"><use fill="#30cdfc" xlink:href="#846ne"/></g><g transform="translate(-7 -15)"><use fill="#26255c" xlink:href="#846nf"/></g><g transform="translate(-7 -15)"><use fill="#30cdfc" xlink:href="#846ng"/></g><g transform="translate(-7 -15)"><use fill="#26255c" xlink:href="#846nh"/></g><g transform="translate(-7 -15)"><use fill="#fcc732" xlink:href="#846ni"/></g><g transform="translate(-7 -15)"><use fill="#26255c" xlink:href="#846nj"/></g><g transform="translate(-7 -15)"><use fill="#30cdfc" xlink:href="#846nk"/></g><g transform="translate(-7 -15)"><use fill="#26255c" xlink:href="#846nl"/></g><g transform="translate(-7 -15)"><use fill="#1db4d8" xlink:href="#846nm"/></g><g transform="translate(-7 -15)"><use fill="#26255c" xlink:href="#846nl"/></g><g transform="translate(-7 -15)"><use fill="#fff171" xlink:href="#846nn"/></g><g transform="translate(-7 -15)"><use fill="#26255c" xlink:href="#846no"/></g><g transform="translate(-7 -15)"><use fill="#fcc732" xlink:href="#846np"/></g><g transform="translate(-7 -15)"><use fill="#26255c" xlink:href="#846nq"/></g><g transform="translate(-7 -15)"><use fill="#fcc732" xlink:href="#846nr"/></g><g transform="translate(-7 -15)"><use fill="#26255c" xlink:href="#846ns"/></g><g transform="translate(-7 -15)"><use fill="#afa7d1" xlink:href="#846nt"/></g><g transform="translate(-7 -15)"><use fill="#27245e" xlink:href="#846nu"/></g><g transform="translate(-7 -15)"><use fill="#fff" xlink:href="#846nv"/></g><g transform="translate(-7 -15)"><use fill="#fff" fill-opacity="0" stroke="#27245e" stroke-linecap="round" stroke-miterlimit="50" stroke-width="2" xlink:href="#846nv"/></g><g transform="translate(-7 -15)"><use fill="#e94f6b" xlink:href="#846nw"/></g><g transform="translate(-7 -15)"><use fill="#27245e" xlink:href="#846nx"/></g><g transform="translate(-7 -15)"><use fill="#fff" xlink:href="#846ny"/></g><g transform="translate(-7 -15)"><use fill="#fff" fill-opacity="0" stroke="#27245e" stroke-linecap="round" stroke-miterlimit="50" stroke-width="2" xlink:href="#846ny"/></g></g></svg>